Coordinates
version=1
nRows=6
nColumns=36
inDegrees=yes

Units are S.I. units (second, meters, Newtons, ...)
If the header above contains a line with 'inDegrees', this indicates whether rotational values are in degrees (yes) or radians (no).

endheader
time	pelvis_tilt	pelvis_list	pelvis_rotation	pelvis_tx	pelvis_ty	pelvis_tz	hip_flexion_r	hip_adduction_r	hip_rotation_r	knee_angle_r	knee_angle_r_beta	ankle_angle_r	subtalar_angle_r	mtp_angle_r	hip_flexion_l	hip_adduction_l	hip_rotation_l	knee_angle_l	knee_angle_l_beta	ankle_angle_l	subtalar_angle_l	mtp_angle_l	lumbar_extension	lumbar_bending	lumbar_rotation	arm_flex_r	arm_add_r	arm_rot_r	elbow_flex_r	pro_sup_r	arm_flex_l	arm_add_l	arm_rot_l	elbow_flex_l	pro_sup_l
     14.96666670	     -4.85244346	     -2.73555222	     -4.11862441	      0.47535253	      0.88148136	      0.78372000	     35.06391237	      5.52064477	      0.66554255	     37.11382888	      0.64775851	     10.40722147	     -7.25172651	     -7.49999987	      6.15218849	     -4.08840702	     -8.57001807	     46.35644046	      0.80907252	     15.58797724	     -1.96204602	     -7.49999987	     -1.62993038	      5.11669683	     -2.90200347	     -5.72794297	     -9.20815192	     -3.97687811	     19.80557227	     77.67179811	     10.58429902	     -8.19321437	      9.69397115	     25.88105105	     78.75898564
     14.98333330	     -5.06489201	     -3.02906676	     -4.04841379	      0.47640677	      0.88358610	      0.78683240	     34.33083364	      6.08994518	      0.65696139	     37.93343780	      0.66206339	     12.26173351	     -7.25460137	     -7.49999987	     10.46583826	     -5.44532096	     -8.52971560	     53.66029222	      0.93654878	     14.23531396	     -3.49258642	     -7.49999987	     -2.01791863	      5.28263927	     -1.80301327	     -5.22348784	     -9.26864852	     -4.12724917	     20.46696907	     77.62610494	     10.46708528	     -8.05102861	     10.11201403	     25.26728936	     78.85889419
     15.00000000	     -5.89454002	     -2.98040086	     -4.15071323	      0.47781048	      0.88915799	      0.78907893	     33.94462518	      6.34672667	      0.74915230	     38.06821725	      0.66441573	     13.87838641	     -7.12372031	     -7.49999987	     14.85763078	     -6.17379820	     -8.21908610	     59.32402906	      1.03539963	     14.14474583	     -4.76797973	     -7.49999987	     -1.17709240	      5.22449296	     -0.57675337	     -5.05498151	     -9.24784048	     -4.27086369	     20.98430871	     76.63719749	     10.31040549	     -7.82917991	     10.99760108	     23.26154442	     78.17634229
     15.01666670	     -6.23354659	     -3.01902268	     -4.14324378	      0.47784534	      0.89987538	      0.79046739	     32.38969182	      6.51077772	      0.67180226	     36.95594890	      0.64500299	     14.93875924	     -7.14453055	     -7.49999987	     17.94780415	     -6.61786819	     -7.64227004	     62.91080198	      1.09800063	     15.32836770	     -5.70680891	     -7.49999987	     -0.79758339	      5.36004590	      0.58521134	     -4.77572312	     -9.30706331	     -4.34212429	     21.30194110	     77.27352885	     10.39055887	     -7.75198403	     13.14437332	     21.25833954	     79.20029521
     15.03333330	     -6.25360112	     -2.93477977	     -4.21056171	      0.47631698	      0.91124234	      0.79239708	     30.10043992	      6.52963066	      0.61615982	     35.12080834	      0.61297374	     15.33806352	     -7.28829819	     -7.49999987	     19.98240109	     -6.69814645	     -7.15142358	     64.62337256	      1.12789062	     16.51017454	     -6.54581546	     -7.49999987	     -0.63215978	      5.37655085	      1.04629392	     -3.47371099	     -9.30892990	     -4.11037515	     20.76082631	     77.85890785	      9.84868991	     -7.67666192	     12.83735301	     19.91898160	     79.30568248
     15.05000000	     -6.26647702	     -2.80599751	     -4.52116745	      0.47410937	      0.91815199	      0.79479440	     27.74537259	      6.59476634	      0.64088149	     33.14084354	      0.57841684	     15.34872034	     -7.52428317	     -7.49999987	     21.56760485	     -6.67557057	     -6.86068431	     65.43407274	      1.14204001	     17.06375857	     -7.46003606	     -7.49999987	     -0.44130346	      5.39828188	      1.72925029	     -2.10303874	     -9.47635222	     -3.86652512	     20.97957193	     77.97942097	      9.10914110	     -7.68132394	     12.77803562	     19.29370672	     79.23756748
